<?xml version="1.0" encoding="UTF-8"?>
<svg id="Layer_2" data-name="Layer 2" xmlns="http://www.w3.org/2000/svg" viewBox="0 0 83.06 95.44">
  <defs>
    <style>
      .cls-1 {
        fill: #fff;
      }
    </style>
  </defs>
  <g id="Layer_1-2" data-name="Layer 1">
    <g>
      <path d="M67.15,95.27H29.01c-.49,0-.8-.41-.79-.8l.04-3.95,6.13-4.5h27.57s6.02,4.49,6.02,4.49l.05,3.82c0,.46-.21.94-.88.94Z"/>
      <g>
        <path d="M46.83,84.42l-4.25-8.68-9.76.31-27.83,19.39-5-.05,3.27-4.89,8.1-12.41,14.77-6.75,17.5-7.97c2.84-1.29,5.48-2.65,8.15-4.22,2.26-1.33,4.29-2.8,6.02-4.75,2.38-2.69,3.97-5.87,4.32-9.46.3-3.04-.43-5.98-2.27-8.37s-4.29-3.81-7.21-3.84l-8.72-.09,10.74-17.94h10.84c1.71.68,3.29,1.91,4.71,3.09.74.67,1.24,1.79,2.14,2.19,1.97.86,4,1.42,6.04,2.1,1.43.48,2.67,1.23,3.71,2.29.48.62.87,1.25.95,2.11l-10.79,2.38c1.78,7.55,2.49,14.65.73,22.11-1.64,6.61-5.42,12.4-10.9,16.44-2.53,1.87-5.14,3.37-8.01,4.62l-5.86,2.55,4.7,9.77-6.11.07ZM67.77,20.48c-2.45-.11-4.37-.12-6.63.01l2.91,2.78,3.72-2.79Z"/>
        <path d="M32.44,65.41l-22.92,10.19-6.15,2.59c-.13.06-.44.01-.45-.06-.08-.54,3.14-3.79,3.77-4.45l11.78-12.38,16.59-17.78,7.35-8.23h9.54c3.4-.01,6.11,2.26,7.09,5.48,1.93,6.2-2.54,12.41-7.68,15.43-1.83,1.08-3.53,2.17-5.47,3.06l-13.45,6.15Z"/>
        <path d="M66.49,13.22h-11.81s-2.58-7.1-2.58-7.1c-.76-.3-1.47-.8-1.57-1.59s.13-1.68.92-2.12c.85-.47,1.82-.32,2.47.26.76.67.71,1.65.39,2.61l2.21,3.45c.12.19.66.33.87.27s.5-.41.57-.67l1.07-4.17c-1.04-1.03-1.03-2.58-.09-3.51s2.61-.84,3.45.26c.75.98.6,2.29-.24,3.26l1.12,4.43c.06.22.55.48.76.45.25-.03.56-.27.72-.53l2.09-3.23c-.19-.67-.42-1.41-.08-2.03s.92-1.06,1.71-1.13c1.13-.09,2.09.67,2.2,1.75s-.56,1.94-1.67,2.25l-2.52,7.09Z"/>
        <path class="cls-1" d="M67.77,20.48l-3.72,2.79-2.91-2.78c2.26-.13,4.18-.12,6.63-.01Z"/>
      </g>
    </g>
  </g>
</svg>