<svg width="400" height="400" viewBox="0 0 400 400" xmlns="http://www.w3.org/2000/svg">
    <g fill="none" stroke="#000" stroke-width="2">
        <path d="M150,50 Q140,120 110,200 L80,200" />
        <path d="M240,60 L270,180 Q280,210 250,240 L180,210" />
        <path d="M200,60 L220,60 Q240,80 230,90" />
        <path d="M230,90 Q220,130 230,130 L250,150" />
        <path d="M50,30 Q50,40 100,50" />
        <path d="M50,30 Q90,20 120,40" />
        <path d="M120,40 Q130,70 160,90" />
        <path d="M50,30 Q60,60 100,70" />
        <path d="M100,70 Q130,100 160,90" />
    </g>
</svg>
