<? xml version = "1.0" encoding = "utf-8" ?>
<svg class="-rotate-[60deg] -translate-x-6 w-[200px]" id="master-artboard"
     viewBox="0 0 1400 980" version="1.1" xmlns="http://www.w3.org/2000/svg" x="0px" y="0px"
     style="enable-background:new 0 0 1400 980;">
    <path d="M 260.79998779296875 86.19999694824219"
          style="fill: rgb(23, 168, 247); fill-opacity: 1; stroke: rgb(0, 0, 0); stroke-opacity: 1; stroke-width: 0; paint-order: fill;"/>
    <g
        transform="matrix(0.0018328310688957574, -9.6078519821167, -9.6078519821167, -0.0018328310688957574, 1168.819348724845, 988.0170288085938)">
        <g>
            <!-- Reversed path direction -->
            <path
                d="M19.3253 77.6737C14.1134 76.5032 11.6329 74.3731 9.5344 69.5548C9.21134 68.8129 8.19484 63.1864 7.53037 63.112C6.25335 62.9691 3.21916 70.4678 2.9682 71.2948C1.40658 76.4418 6.28171 76.9284 10.5148 77.213C11.502 77.2793 17.7243 77.9867 16.755 78.0657C13.5771 78.3248 9.99484 77.7788 6.85897 77.2296C3.24474 76.5966 0.348605 75.1774 5.76428 74.151C20.2216 71.4112 32.2897 67.5184 44.2548 58.8791C46.8111 57.0334 66.6654 36.3021 53.849 37.3949C42.243 38.3844 36.7985 53.1087 36.7673 62.5332C36.7215 76.3709 51.0557 78.6989 62.3048 74.1115C83.3723 65.5204 93.9574 46.1137 100.676 26.5417"
                stroke="currentColor" stroke-width="2" stroke-linecap="round"
                style="fill: rgb(255, 255, 255); fill-opacity: 0; stroke: rgb(0, 0, 0);"
                transform="matrix(0.9999999999999999, 0, 0, 0.9999999999999999, 2.0752495397696578, -3.40787419626605)"/>
        </g>
    </g>
</svg>
