<svg xmlns="http://www.w3.org/2000/svg" width="124" height="101" viewBox="0 0 124 101" fill="none">
    <g clip-path="url(#clip0_rtl)">
        <path
            d="M110.841 30.5605C98.13 29.4569 90.7394 30.8618 84.3909 42.3857C80.367 49.6899 77.5817 59.3311 77.6762 67.7073C77.7309 72.5626 81.7108 65.9515 82.3296 64.6273C89.4901 49.3076 87.1067 29.794 73.3998 18.9635C64.4667 11.9051 55.3796 16.8471 48.8601 24.5336C38.9177 36.2557 37.3089 53.2905 40.0719 67.8963C40.9911 72.755 42.9266 87.6248 49.5202 88.4661C54.9832 89.1631 53.2946 79.5464 52.6409 76.6577C51.7088 72.5391 49.3813 63.7152 45.2423 61.7025C39.306 58.8161 33.2737 68.0342 31.434 72.2364C27.9405 80.2162 26.9481 90.0519 25.4452 98.5871C25.3347 99.2155 27.8978 96.1168 28.3511 95.5787C29.6501 94.0379 31.5194 93.0934 32.6868 91.4383C33.5529 90.2104 36.6894 82.7634 32.9114 86.4645C31.5799 87.7691 27.2595 98.7863 26.8222 98.7038C25.0356 98.3683 21.33 87.2815 20.6614 85.227C19.051 80.2795 29.0224 86.3346 30.218 87.3542"
            stroke="currentColor" stroke-width="2" stroke-linecap="round"></path>
    </g>
    <defs>
        <clipPath id="clip0_rtl">
            <rect width="106" height="67" fill="white"
                  transform="matrix(-0.932551 0.361039 -0.361039 -0.932551 124 62.481)"/>
        </clipPath>
    </defs>
</svg>
